<svg width="30" height="30" viewBox="0 0 30 30" fill="none" xmlns="http://www.w3.org/2000/svg">
<path d="M29.3264 25.3813L22.151 18.2052C23.2696 16.369 23.8596 14.2597 23.856 12.1096C23.856 5.62087 18.2338 1.53551e-07 11.7457 1.53551e-07C10.2032 -0.000249291 8.67572 0.303422 7.25055 0.893669C5.82537 1.48392 4.53044 2.34917 3.43969 3.44002C2.34895 4.53087 1.48377 5.82593 0.893584 7.25124C0.303393 8.67655 -0.000249267 10.2042 1.53536e-07 11.7469C1.53536e-07 18.2337 5.62224 23.8564 12.1084 23.8564C14.1875 23.8583 16.2293 23.305 18.0231 22.2537L25.2364 29.4716C25.5757 29.81 26.0352 30 26.5143 30C26.9934 30 27.453 29.81 27.7922 29.4716L29.5827 27.6809C30.2872 26.9764 30.0308 26.0858 29.3264 25.3813ZM3.61524 11.7469C3.61499 10.6789 3.82511 9.62133 4.2336 8.63458C4.64208 7.64783 5.24093 6.75122 5.99594 5.99596C6.75095 5.2407 7.64734 4.64158 8.6339 4.23283C9.62046 3.82407 10.6779 3.61369 11.7457 3.61369C16.2382 3.61369 20.2408 7.61476 20.2408 12.1096C20.2403 14.2665 19.3833 16.3349 17.8583 17.86C16.3333 19.3852 14.2651 20.2422 12.1084 20.2427C7.61594 20.2408 3.61524 16.2379 3.61524 11.7469Z" fill="#CA2031" fill-opacity="0.98"/>
</svg>
