<svg width="100" height="100" viewBox="0 0 100 100" fill="none" xmlns="http://www.w3.org/2000/svg">
<path d="M50 4C24.634 4 4 24.634 4 50C4 75.366 24.634 96 50 96C75.366 96 96 75.366 96 50C96 24.634 75.366 4 50 4ZM50 56C49.076 56 48.21 55.774 47.428 55.4L35.414 67.414C35.024 67.804 34.512 68 34 68C33.488 68 32.976 67.804 32.586 67.414C31.804 66.632 31.804 65.368 32.586 64.586L44.6 52.572C44.226 51.79 44 50.924 44 50C44 47.392 45.674 45.194 48 44.368V16C48 14.894 48.894 14 50 14C51.106 14 52 14.894 52 16V44.368C54.326 45.194 56 47.392 56 50C56 53.314 53.314 56 50 56Z" fill="black"/>
</svg>
